<svg xmlns="http://www.w3.org/2000/svg" width="32" height="32" viewBox="0 0 8.4666664 8.466667">
  <path fill="#4a4a4f" fill-opacity=".6" d="M5.828125 0a.52923315.52923315 0 0 0-.3808594.15429688L1.2128906 4.3886719a.52923315.52923315 0 0 0 .375.9023437h.9609375l-.4257812 2.5585938a.52923315.52923315 0 0 0 .8710937.4863281l4.234375-3.7050781a.52923315.52923315 0 0 0-.3496094-.9277344h-.9765624L6.3457031.60351562A.52923315.52923315 0 0 0 5.828125 0zm-.7558594 2.0253906l-.3046875 2.1328125a.52923315.52923315 0 0 0 .5234375.6035157h.1816406L3.4121094 6.5644531l.2851562-1.7148437a.52923315.52923315 0 0 0-.5214844-.6171875h-.3105468z" color="#000" font-family="sans-serif" font-weight="400" overflow="visible" style="line-height:normal;font-variant-ligatures:normal;font-variant-position:normal;font-variant-caps:normal;font-variant-numeric:normal;font-variant-alternates:normal;font-feature-settings:normal;text-indent:0;text-align:start;text-decoration-line:none;text-decoration-style:solid;text-decoration-color:#000;text-transform:none;text-orientation:mixed;shape-padding:0;isolation:auto;mix-blend-mode:normal" white-space="normal"/>
  <path fill="#ffd840" d="M5.0742469 2.0251615l-.3046954 2.1328546a.52923317.52923317 0 0 0 .523451.6054955h.1757865L3.4101425 6.5643377l.2851635-1.7148839a.52923317.52923317 0 0 0-.5195445-.6172158h-.3086023z" color="#000" font-family="sans-serif" font-weight="400" overflow="visible" style="line-height:normal;font-variant-ligatures:normal;font-variant-position:normal;font-variant-caps:normal;font-variant-numeric:normal;font-variant-alternates:normal;font-feature-settings:normal;text-indent:0;text-align:start;text-decoration-line:none;text-decoration-style:solid;text-decoration-color:#000;text-transform:none;text-orientation:mixed;shape-padding:0;isolation:auto;mix-blend-mode:normal" white-space="normal"/>
</svg>
