<svg xmlns="http://www.w3.org/2000/svg" width="19" height="19" viewBox="0 0 5.0270832 5.0270835">
  <path fill="#4a4a4f" fill-opacity=".6" d="M3.4609375 0a.3142306.3142306 0 0 0-.2265625.09179687L.72070312 2.6054688a.3142306.3142306 0 0 0 .22265626.5371093H1.515625l-.2539062 1.5195313a.3142306.3142306 0 0 0 .515625.2871094L4.2910156 2.75a.3142306.3142306 0 0 0-.2070312-.5507812h-.5800782L3.7675781.359375A.3142306.3142306 0 0 0 3.4609375 0zm-.4492187 1.203125L2.8300781 2.46875a.3142306.3142306 0 0 0 .3125.359375h.1054688L2.0253906 3.8964844l.1699219-1.0175782a.3142306.3142306 0 0 0-.3105469-.3652343h-.1835937z" color="#000" font-family="sans-serif" font-weight="400" overflow="visible" style="line-height:normal;font-variant-ligatures:normal;font-variant-position:normal;font-variant-caps:normal;font-variant-numeric:normal;font-variant-alternates:normal;font-feature-settings:normal;text-indent:0;text-align:start;text-decoration-line:none;text-decoration-style:solid;text-decoration-color:#000;text-transform:none;text-orientation:mixed;shape-padding:0;isolation:auto;mix-blend-mode:normal" white-space="normal"/>
  <path fill="#ffd840" d="M3.0128316 1.202497l-.180912 1.266376a.31423061.31423061 0 0 0 .3107975.3595111h.1043727L2.0247746 3.8976192l.169315-1.0182072a.31423061.31423061 0 0 0-.308478-.36647h-.1832317z" color="#000" font-family="sans-serif" font-weight="400" overflow="visible" style="line-height:normal;font-variant-ligatures:normal;font-variant-position:normal;font-variant-caps:normal;font-variant-numeric:normal;font-variant-alternates:normal;font-feature-settings:normal;text-indent:0;text-align:start;text-decoration-line:none;text-decoration-style:solid;text-decoration-color:#000;text-transform:none;text-orientation:mixed;shape-padding:0;isolation:auto;mix-blend-mode:normal" white-space="normal"/>
</svg>
