<svg xmlns="http://www.w3.org/2000/svg" width="38" height="38" viewBox="0 0 10.054166 10.054167">
  <path fill="#4a4a4f" fill-opacity=".6" d="M6.8560024.00209956a.62846121.62846121 0 0 0-.3896566.18097872L1.442561 5.2115078a.62846121.62846121 0 0 0 .4406829 1.0715508h1.1457754l-.5056255 3.0383287a.62846121.62846121 0 0 0 1.0344451.5751893l5.0237847-4.3975453a.62846121.62846121 0 0 0-.4128502-1.0993864H7.0090817L7.5332623.71646674a.62846121.62846121 0 0 0-.6772599-.71436718zM6.0256631 2.4049839l-.361824 2.5327521a.62846121.62846121 0 0 0 .6215949.7190222h.2087454L4.0495491 7.7952284l.3386299-2.0364143a.62846121.62846121 0 0 0-.616956-.7329401h-.3664633z" color="#000" font-family="sans-serif" font-weight="400" overflow="visible" style="line-height:normal;font-variant-ligatures:normal;font-variant-position:normal;font-variant-caps:normal;font-variant-numeric:normal;font-variant-alternates:normal;font-feature-settings:normal;text-indent:0;text-align:start;text-decoration-line:none;text-decoration-style:solid;text-decoration-color:#000;text-transform:none;text-orientation:mixed;shape-padding:0;isolation:auto;mix-blend-mode:normal" white-space="normal"/>
  <path fill="#ffd840" d="M6.0256631 2.4049839l-.361824 2.5327521a.62846121.62846121 0 0 0 .6215949.7190222h.2087454L4.0495491 7.7952284l.3386299-2.0364143a.62846121.62846121 0 0 0-.616956-.7329401h-.3664633z" color="#000" font-family="sans-serif" font-weight="400" overflow="visible" style="line-height:normal;font-variant-ligatures:normal;font-variant-position:normal;font-variant-caps:normal;font-variant-numeric:normal;font-variant-alternates:normal;font-feature-settings:normal;text-indent:0;text-align:start;text-decoration-line:none;text-decoration-style:solid;text-decoration-color:#000;text-transform:none;text-orientation:mixed;shape-padding:0;isolation:auto;mix-blend-mode:normal" white-space="normal"/>
</svg>
