<svg xmlns="http://www.w3.org/2000/svg" width="64" height="64" viewBox="0 0 64.000002 64">
  <g transform="matrix(1.33333 0 0 -1.33333 0 64)">
    <circle cx="24" cy="-24" r="24" fill="#fff" transform="scale(1 -1)"/>
    <circle cx="24" cy="-24" r="19.271656" fill="#ffe788" transform="scale(1 -1)"/>
    <circle cx="24" cy="-24" r="14.66947" fill="#ffd840" transform="scale(1 -1)"/>
    <path fill="#005eff" d="M34.4892431 41.86013413L15.22993315 22.30013648l5.96389227-.37661988-2.71228274-15.0479165 16.10315375 17.8079316-5.25316859.33106287z"/>
    <path fill="#ffd840" stroke="#005eff" stroke-width=".43389691" d="M33.16275934 43.81066933L13.90344941 24.25067168l5.96388088-.37663127-2.71228274-15.0479051 16.10316514 17.80792021-5.25317998.33106286z"/>
    <path fill="#005eff" d="M16.80766388 8.1176553l2.80281593 15.55568366-6.19512831.39150564 19.59307205 19.89782573.36258832-.21576943-5.07844603-16.5833817 5.42768615-.3403451zm.69624794 1.41698278l15.29319549 16.9125995-5.08067832.31810188 4.97834586 16.2608266L14.391889 24.43854883l5.73243983-.36258832z" color="#000" font-family="sans-serif" font-weight="400" overflow="visible" style="line-height:normal;font-variant-ligatures:normal;font-variant-position:normal;font-variant-caps:normal;font-variant-numeric:normal;font-variant-alternates:normal;font-feature-settings:normal;text-indent:0;text-align:start;text-decoration-line:none;text-decoration-style:solid;text-decoration-color:#000;text-transform:none;text-orientation:mixed;shape-padding:0;isolation:auto;mix-blend-mode:normal" white-space="normal"/>
  </g>
</svg>
